<?xml version="1.0" encoding="utf-8"?>
<svg viewBox="260.943 1.122 500 500" xmlns="http://www.w3.org/2000/svg">
  <path class="cls-2" d="M 402.163 207.173 L 508.318 133.731 C 511.131 131.785 514.596 131.785 517.41 133.731 L 626.915 209.495 C 629.792 211.483 629.794 216.459 626.918 218.451 C 626.917 218.452 626.915 218.453 626.915 218.454 L 520.67 291.972 C 517.718 294.017 514.08 294.017 511.129 291.972 L 402.163 216.585 C 399.146 214.489 399.146 209.268 402.163 207.173 Z" style="fill: none; opacity: 0.95; stroke: rgb(234, 234, 234); stroke-miterlimit: 10; stroke-width: 3px;"/>
  <path class="cls-2" d="M 399.897 211.875 L 385.622 260.87 C 384.216 265.687 385.885 271.019 389.587 273.542 L 507.394 353.764 C 511.722 356.704 517.027 356.669 521.327 353.672 L 646.457 266.091 C 650.121 263.529 651.324 257.869 649.129 253.52 L 626.929 209.486" style="fill: none; opacity: 0.95; stroke: rgb(234, 234, 234); stroke-miterlimit: 10; stroke-width: 3px;"/>
  <line class="cls-2" x1="516.529" y1="293.505" x2="516.529" y2="344.78" style="fill: none; opacity: 0.95; stroke: rgb(234, 234, 234); stroke-miterlimit: 10; stroke-width: 3px;"/>
  <text class="cls-3" transform="matrix(0.727418, -0.511238, 0.566547, 0.494476, 548.89917, 254.910461)" style="white-space: pre; fill: rgb(234, 234, 234); font-family: Helvetica-Bold, Helvetica; font-size: 23.21px; font-weight: 700; letter-spacing: 0.4642px; line-height: 37.136px; opacity: 0.99;">javie<tspan class="cls-4" x="53.59" y="0" style="letter-spacing: -0.9284px;">r</tspan><tspan class="cls-5" x="61.75" y="0">.w</tspan></text>
  <path class="cls-6" d="M404.29,243.12" transform="matrix(1, 0, 0, 1, 468.730266, -27.990707)" style="fill: none; opacity: 0.7; stroke: rgb(255, 255, 255); stroke-miterlimit: 10; stroke-width: 1.5px;"/>
</svg>