<?xml version="1.0" encoding="utf-8"?>
<svg viewBox="0 0 500 500" xmlns="http://www.w3.org/2000/svg">
  <path class="cls-6" d="M404.29,243.12" transform="matrix(1, 0, 0, 1, 201.247935, -43.774562)" style="fill: none; opacity: 0.7; stroke: rgb(255, 255, 255); stroke-miterlimit: 10; stroke-width: 1.5px;"/>
  <path class="cls-2" d="M 46.312 237.716 L 29.312 283.206 C 24.882 289.206 26.772 294.206 30.982 296.626 L 139.812 355.666 C 142.002 356.856 144.222 355.206 146.392 353.986 L 243.202 299.266 C 243.202 299.266 247.082 296.516 249.202 297.726 L 306.622 325.326 C 310.717 327.641 315.726 327.641 319.822 325.326 L 460.312 245.966 C 462.344 244.821 463.053 242.239 461.892 240.216 L 438.142 198.666" style="fill: none; opacity: 0.93; stroke: rgb(234, 234, 234); stroke-miterlimit: 10; stroke-width: 3px;"/>
  <path class="cls-2" d="M 49.212 231.426 L 269.212 104.426 C 272.135 102.736 275.738 102.736 278.662 104.426 L 434.072 194.156 C 438.921 196.949 438.929 203.944 434.085 206.748 C 434.081 206.751 434.076 206.753 434.072 206.756 L 320.072 272.596 C 314.827 275.61 308.376 275.61 303.132 272.596 L 247.932 240.666 C 245.008 238.976 241.405 238.976 238.482 240.666 L 147.882 292.976 C 144.958 294.666 141.355 294.666 138.432 292.976 L 49.212 241.466 C 45.347 239.245 45.336 233.674 49.192 231.437 C 49.198 231.434 49.205 231.43 49.212 231.426 Z" style="fill: none; opacity: 0.93; stroke: rgb(234, 234, 234); stroke-miterlimit: 10; stroke-width: 3px;"/>
  <text class="cls-3" transform="matrix(1.04, -0.61, 0.81, 0.59, 335.47171, 246.935944)" style="white-space: pre; fill: rgb(234, 234, 234); font-family: Helvetica-Bold, Helvetica; font-size: 20.84px; font-weight: 700; letter-spacing: 0.4168px; line-height: 33.344px; opacity: 0.97;">javie<tspan class="cls-4" x="48.12" y="0" style="letter-spacing: -0.8336px;">r</tspan><tspan x="55.44" y="0">.w</tspan></text>
  <g class="cls-5" style="opacity: 0.93;" transform="matrix(1, 0, 0, 1, -61.37833, -70.014069)">
    <path class="cls-6" d="M203,364.57v50.8c0,1,2.26,2,2.26.93V365.51c0-1-2.26-2-2.26-.94Z" transform="translate(0 -1.32)" style="fill: rgb(234, 234, 234);"/>
  </g>
  <g class="cls-5" style="opacity: 0.93;" transform="matrix(1, 0, 0, 1, -61.37833, -70.014069)">
    <path class="cls-6" d="M371.5,346.67,373.24,385c0,1,2.31,1.82,2.25.48l-1.73-38.33c-.05-1-2.32-1.82-2.26-.48Z" transform="translate(0 -1.32)" style="fill: rgb(234, 234, 234);"/>
  </g>
  <g class="cls-5" style="opacity: 0.93;" transform="matrix(1, 0, 0, 1, -61.37833, -70.014069)">
    <path class="cls-6" d="M304,310.13l1.77,43.2c0,1,2.3,1.82,2.25.48l-1.77-43.2c0-1-2.3-1.83-2.25-.48Z" transform="translate(0 -1.32)" style="fill: rgb(234, 234, 234);"/>
  </g>
  <polyline class="cls-7" points="361.412 173.796 388.552 188.236 364.802 201.946 370.602 191.676" style="fill: none; opacity: 0.96; stroke: rgb(255, 255, 255); stroke-miterlimit: 10; stroke-width: 0.6px;"/>
  <path class="cls-8" d="M 923.091 206.371" style="fill: none; opacity: 0.93; stroke: rgb(234, 234, 234); stroke-miterlimit: 10; stroke-width: 0.5px;"/>
  <path class="cls-9" d="M 708.681 137.331" style="fill: none; opacity: 0.7; stroke: rgb(255, 255, 255); stroke-miterlimit: 10; stroke-width: 1.5px;"/>
</svg>