<?xml version="1.0" encoding="utf-8"?>
<svg viewBox="139.731 10.662 500 500" xmlns="http://www.w3.org/2000/svg">
  <path class="cls-6" d="M404.29,243.12" transform="matrix(1, 0, 0, 1, 468.730266, -27.990707)" style="fill: none; opacity: 0.7; stroke: rgb(255, 255, 255); stroke-miterlimit: 10; stroke-width: 1.5px;"/>
  <path class="cls-6" d="M404.29,243.12" transform="matrix(1, 0, 0, 1, 392.663148, -17.718362)" style="fill: none; opacity: 0.7; stroke: rgb(255, 255, 255); stroke-miterlimit: 10; stroke-width: 1.5px;"/>
  <path class="cls-2" d="M 235.009 270.34 L 220.374 318.051 C 216.56 324.344 218.187 329.588 221.811 332.126 L 315.503 394.048 C 317.388 395.296 319.299 393.565 321.167 392.286 L 404.511 334.895 C 404.511 334.895 407.851 332.01 409.675 333.279 L 459.108 362.226 C 462.633 364.655 466.945 364.655 470.472 362.226 L 591.419 278.993 C 593.168 277.792 593.778 275.084 592.779 272.963 L 572.333 229.385" style="fill: none; opacity: 0.93; stroke: rgb(234, 234, 234); stroke-miterlimit: 10; stroke-width: 3px;"/>
  <path class="cls-2" d="M 237.506 263.743 L 426.902 130.544 C 429.419 128.772 432.521 128.772 435.038 130.544 L 568.829 224.654 C 573.003 227.584 573.01 234.92 568.84 237.861 C 568.837 237.864 568.832 237.866 568.829 237.869 L 470.687 306.922 C 466.172 310.084 460.618 310.084 456.104 306.922 L 408.582 273.435 C 406.065 271.662 402.963 271.662 400.447 273.435 L 322.45 328.298 C 319.933 330.071 316.831 330.071 314.315 328.298 L 237.506 274.274 C 234.178 271.944 234.169 266.101 237.488 263.755 C 237.494 263.752 237.5 263.748 237.506 263.743 Z" style="fill: none; opacity: 0.93; stroke: rgb(234, 234, 234); stroke-miterlimit: 10; stroke-width: 3px;"/>
  <text class="cls-3" transform="matrix(0.895328, -0.639776, 0.697323, 0.6188, 483.94455, 280.010345)" style="white-space: pre; fill: rgb(234, 234, 234); font-family: Helvetica-Bold, Helvetica; font-size: 20.84px; font-weight: 400; letter-spacing: 0.4168px; line-height: 33.344px; opacity: 0.97;">javie<tspan class="cls-4" x="48.12" y="0" style="letter-spacing: -0.8336px;">r</tspan><tspan x="55.44" y="0">.w</tspan></text>
  <g class="cls-5" style="opacity: 0.93;" transform="matrix(0.860893, 0, 0, 1.048813, 142.2995, -52.410912)">
    <path class="cls-6" d="M203,364.57v50.8c0,1,2.26,2,2.26.93V365.51c0-1-2.26-2-2.26-.94Z" transform="translate(0 -1.32)" style="fill: rgb(234, 234, 234);"/>
  </g>
  <g class="cls-5" style="opacity: 0.93;" transform="matrix(0.860893, 0, 0, 1.048813, 142.2995, -52.410912)">
    <path class="cls-6" d="M371.5,346.67,373.24,385c0,1,2.31,1.82,2.25.48l-1.73-38.33c-.05-1-2.32-1.82-2.26-.48Z" transform="translate(0 -1.32)" style="fill: rgb(234, 234, 234);"/>
  </g>
  <g class="cls-5" style="opacity: 0.93;" transform="matrix(0.860893, 0, 0, 1.048813, 142.2995, -52.410912)">
    <path class="cls-6" d="M304,310.13l1.77,43.2c0,1,2.3,1.82,2.25.48l-1.77-43.2c0-1-2.3-1.83-2.25-.48Z" transform="translate(0 -1.32)" style="fill: rgb(234, 234, 234);"/>
  </g>
  <polyline class="cls-7" points="506.276 203.3 529.641 218.445 509.195 232.824 514.188 222.053" style="fill: none; opacity: 0.96; stroke: rgb(255, 255, 255); stroke-miterlimit: 10; stroke-width: 0.6px;"/>
  <path class="cls-8" d="M 923.091 206.371" style="fill: none; opacity: 0.93; stroke: rgb(234, 234, 234); stroke-miterlimit: 10; stroke-width: 0.5px;" transform="matrix(1, 0, 0, 1, 191.415208, 26.056201)"/>
  <path class="cls-9" d="M 708.681 137.331" style="fill: none; opacity: 0.7; stroke: rgb(255, 255, 255); stroke-miterlimit: 10; stroke-width: 1.5px;" transform="matrix(1, 0, 0, 1, 191.415208, 26.056201)"/>
</svg>