<svg xmlns="http://www.w3.org/2000/svg" viewBox="701.38 231.28 530.27 447.87">
  <path class="cls-2" d="M 736.765 381.751 L 947.902 235.68 C 953.496 231.81 960.388 231.81 965.986 235.68 L 1183.784 386.369 C 1189.507 390.324 1189.511 400.222 1183.791 404.183 C 1183.788 404.185 1183.784 404.187 1183.784 404.188 L 972.469 550.412 C 966.597 554.479 959.363 554.479 953.493 550.412 L 736.765 400.471 C 730.765 396.302 730.765 385.918 736.765 381.751 Z" style="opacity: 0.95; stroke-miterlimit: 10; stroke-width: 3px; stroke: rgb(128, 255, 209); fill: rgb(10, 25, 46);"/>
  <path class="cls-2" d="M 732.258 391.104 L 703.866 488.551 C 701.07 498.133 704.39 508.737 711.752 513.756 L 946.064 673.312 C 954.672 679.16 965.224 679.091 973.776 673.13 L 1222.652 498.936 C 1229.939 493.84 1232.332 482.583 1227.967 473.934 L 1183.813 386.352" style="opacity: 0.95; stroke-miterlimit: 10; stroke-width: 3px; stroke: rgb(128, 255, 209); fill: rgb(10, 25, 46);"/>
  <line class="cls-2" x1="964.233" y1="553.46" x2="964.233" y2="655.444" style="opacity: 0.95; stroke-miterlimit: 10; stroke-width: 3px; stroke: rgb(128, 255, 209); fill: rgb(10, 25, 47);"/>
  <text class="cls-3" transform="matrix(1.446792, -1.016822, 1.126829, 0.983484, 1028.615356, 476.698608)" style="fill: rgb(128, 255, 209); font-family: Helvetica-Bold, Helvetica; font-size: 23.21px; font-weight: 700; letter-spacing: 0.4642px; stroke: rgb(128, 255, 209); white-space: pre; opacity: 0.99;"><tspan>javier
    </tspan><tspan x="57.75" y="0">.w</tspan></text>
  <path class="cls-6" d="M 1526.775 372.697" style="fill: none; opacity: 0.7; stroke: rgb(255, 255, 255); stroke-miterlimit: 10; stroke-width: 1.5px;"/>
</svg>